<svg xmlns="http://www.w3.org/2000/svg" xmlns:xlink="http://www.w3.org/1999/xlink" width="45" height="45.303" viewBox="0 0 45 45.303">
  <defs>
    <clipPath id="clip-path">
      <rect id="사각형_3" data-name="사각형 3" width="45" height="45.303" fill="none"/>
    </clipPath>
  </defs>
  <g id="그룹_2" data-name="그룹 2" clip-path="url(#clip-path)">
    <path id="패스_1" data-name="패스 1" d="M41.985,22.577A19.488,19.488,0,0,0,22.337,3.227a19.394,19.394,0,1,0,0,38.786A19.617,19.617,0,0,0,41.985,22.577" transform="translate(0.136 0.121)" fill="#727270" fill-rule="evenodd"/>
    <path id="패스_2" data-name="패스 2" d="M14.208,3.181c.423-.165.928-.333,1.434-.5C11.511-.9,6.029-.825,2.572,2.514-.8,5.847-.885,11.187,2.488,15.192a5.517,5.517,0,0,1,.252-.666A21.1,21.1,0,0,1,7.379,7.767a20.079,20.079,0,0,1,6.829-4.586" transform="translate(0 0)" fill="#67cdfd" fill-rule="evenodd"/>
    <path id="패스_3" data-name="패스 3" d="M41.088,2.514c-3.457-3.34-9.023-3.42-13.07.166.506.167,1.012.335,1.434.5a20.077,20.077,0,0,1,6.829,4.585,19.607,19.607,0,0,1,4.555,6.759,1.654,1.654,0,0,1,.336.667c3.374-4.006,3.205-9.345-.084-12.678" transform="translate(1.37 0)" fill="#67cdfd" fill-rule="evenodd"/>
    <path id="패스_4" data-name="패스 4" d="M32.066,35.981a14.388,14.388,0,0,1-1.939,1.166,16.486,16.486,0,0,1-15.769,0c-.674-.332-1.349-.746-2.024-1.166A16.372,16.372,0,0,1,5.588,22.636a16.655,16.655,0,0,1,33.308,0,16.44,16.44,0,0,1-6.829,13.344" transform="translate(0.273 0.229)" fill="#fefefe" fill-rule="evenodd"/>
    <path id="패스_5" data-name="패스 5" d="M6.31,43.879h4.555L12.8,40.545,9.682,37.959Z" transform="translate(0.309 1.424)" fill="#67cdfd" fill-rule="evenodd"/>
    <path id="패스_6" data-name="패스 6" d="M36.36,43.879H31.807l-1.94-3.335,3.12-2.585Z" transform="translate(1.461 1.424)" fill="#67cdfd" fill-rule="evenodd"/>
    <path id="패스_7" data-name="패스 7" d="M32.657,12.225A14.672,14.672,0,0,0,22.117,7.89,14.488,14.488,0,0,0,11.66,12.225,14.509,14.509,0,0,0,7.276,22.57a14.841,14.841,0,0,0,29.683,0,14.43,14.43,0,0,0-4.3-10.345" transform="translate(0.356 0.296)" fill="#727270" fill-rule="evenodd"/>
    <path id="패스_8" data-name="패스 8" d="M23.753,19.4h0l-5.145-4.839c-.084-.167-.337-.167-.506-.167a1.259,1.259,0,0,0-.506.167l-.506.586c-.169.081-.169.334-.169.5a1.167,1.167,0,0,0,.169.5l4.721,4.42.17,7.678a.751.751,0,0,0,.758.748l.759-.081a.685.685,0,0,0,.674-.753l-.169-8.259a.718.718,0,0,0-.253-.5" transform="translate(0.828 0.54)" fill="#67cdfd" fill-rule="evenodd"/>
  </g>
</svg>
