<svg xmlns="http://www.w3.org/2000/svg" xmlns:xlink="http://www.w3.org/1999/xlink" width="20.238" height="20.374" viewBox="0 0 20.238 20.374">
  <defs>
    <clipPath id="clip-path">
      <rect id="사각형_3" data-name="사각형 3" width="20.238" height="20.374" fill="none"/>
    </clipPath>
  </defs>
  <g id="그룹_2" data-name="그룹 2" clip-path="url(#clip-path)">
    <path id="패스_1" data-name="패스 1" d="M20.408,11.929a8.818,8.818,0,0,0-17.635,0,8.719,8.719,0,0,0,8.8,8.741,8.823,8.823,0,0,0,8.836-8.741" transform="translate(-1.465 -1.721)" fill="#727270" fill-rule="evenodd"/>
    <path id="패스_2" data-name="패스 2" d="M6.39,1.431c.19-.074.417-.15.645-.225a4.282,4.282,0,0,0-5.878-.075,4.135,4.135,0,0,0-.038,5.7,2.481,2.481,0,0,1,.113-.3,9.49,9.49,0,0,1,2.086-3.04A9.03,9.03,0,0,1,6.39,1.431" transform="translate(0 0)" fill="#67cdfd" fill-rule="evenodd"/>
    <path id="패스_3" data-name="패스 3" d="M33.9,1.13a4.282,4.282,0,0,0-5.878.075c.227.075.455.151.645.225a9.029,9.029,0,0,1,3.071,2.062,8.818,8.818,0,0,1,2.049,3.04.744.744,0,0,1,.151.3,4.173,4.173,0,0,0-.038-5.7" transform="translate(-14.801 0)" fill="#67cdfd" fill-rule="evenodd"/>
    <path id="패스_4" data-name="패스 4" d="M17.5,19.549a6.471,6.471,0,0,1-.872.524,7.415,7.415,0,0,1-7.092,0c-.3-.149-.607-.335-.91-.524a7.363,7.363,0,0,1-3.034-6,7.49,7.49,0,0,1,14.98,0,7.394,7.394,0,0,1-3.071,6" transform="translate(-2.952 -3.264)" fill="#fefefe" fill-rule="evenodd"/>
    <path id="패스_5" data-name="패스 5" d="M6.31,40.622H8.359l.872-1.5-1.4-1.163Z" transform="translate(-3.333 -20.247)" fill="#67cdfd" fill-rule="evenodd"/>
    <path id="패스_6" data-name="패스 6" d="M32.787,40.622H30.739l-.873-1.5,1.4-1.163Z" transform="translate(-15.777 -20.247)" fill="#67cdfd" fill-rule="evenodd"/>
    <path id="패스_7" data-name="패스 7" d="M18.691,9.839A6.6,6.6,0,0,0,13.95,7.89a6.7,6.7,0,0,0-6.674,6.6,6.675,6.675,0,0,0,13.349,0,6.49,6.49,0,0,0-1.935-4.653" transform="translate(-3.844 -4.209)" fill="#727270" fill-rule="evenodd"/>
    <path id="패스_8" data-name="패스 8" d="M19.995,16.65h0l-2.314-2.176c-.038-.075-.151-.075-.227-.075a.566.566,0,0,0-.227.075L17,14.738c-.076.036-.076.15-.076.225a.525.525,0,0,0,.076.225l2.123,1.988.076,3.453a.338.338,0,0,0,.341.336l.342-.036a.308.308,0,0,0,.3-.339l-.076-3.714a.323.323,0,0,0-.114-.225" transform="translate(-8.94 -7.68)" fill="#67cdfd" fill-rule="evenodd"/>
  </g>
</svg>
