<svg id="구성_요소_3_1" data-name="구성 요소 3 – 1" xmlns="http://www.w3.org/2000/svg" xmlns:xlink="http://www.w3.org/1999/xlink" width="21" height="21.048" viewBox="0 0 21 21.048">
  <defs>
    <clipPath id="clip-path">
      <rect id="사각형_8" data-name="사각형 8" width="21" height="21.048" fill="none"/>
    </clipPath>
  </defs>
  <g id="그룹_8" data-name="그룹 8" clip-path="url(#clip-path)">
    <path id="패스_9" data-name="패스 9" d="M21,9.214H18.915a10.577,10.577,0,0,0-.438-1.794L20.271,6.4l-1.309-2.28L17.169,5.139a6.459,6.459,0,0,0-1.311-1.261l1.02-1.842L14.6.727,13.58,2.522a10.672,10.672,0,0,0-1.794-.436V0H9.166V2.085a10.107,10.107,0,0,0-1.746.436L6.354.727,4.074,2.037,5.141,3.879a6.515,6.515,0,0,0-1.31,1.261L2.037,4.121.728,6.4,2.523,7.419a10.887,10.887,0,0,0-.486,1.794H0v2.619H2.085a7.1,7.1,0,0,0,.438,1.746L.728,14.646l1.309,2.279,1.794-1.068a8.484,8.484,0,0,0,1.31,1.31L4.074,18.962l2.279,1.309L7.42,18.477a10.36,10.36,0,0,0,1.746.485v2.085h2.62V18.962a10.932,10.932,0,0,0,1.794-.485L14.6,20.271l2.281-1.309-1.02-1.794a8.389,8.389,0,0,0,1.311-1.31l1.794,1.068,1.309-2.279-1.795-1.068a10.043,10.043,0,0,0,.438-1.746H21Z" transform="translate(0 0)" fill="#727270" fill-rule="evenodd"/>
    <path id="패스_10" data-name="패스 10" d="M13.69,19.687a5.917,5.917,0,1,1,0-11.833,5.917,5.917,0,0,1,0,11.833" transform="translate(-3.214 -3.247)" fill="#fefefe" fill-rule="evenodd"/>
    <path id="패스_11" data-name="패스 11" d="M14.133,8.928a5.286,5.286,0,0,1,0,10.573,5.286,5.286,0,1,1,0-10.573" transform="translate(-3.657 -3.691)" fill="#67cdfd" fill-rule="evenodd"/>
    <path id="패스_12" data-name="패스 12" d="M14.373,9.508a4.947,4.947,0,0,1,0,9.893,4.947,4.947,0,1,1,0-9.893" transform="translate(-3.897 -3.931)" fill="#fefefe" fill-rule="evenodd"/>
  </g>
</svg>
