<svg xmlns="http://www.w3.org/2000/svg" xmlns:xlink="http://www.w3.org/1999/xlink" width="10.924" height="14.5" viewBox="0 0 10.924 14.5">
  <defs>
    <clipPath id="clip-path">
      <rect id="사각형_17" data-name="사각형 17" width="10.924" height="14.5" fill="none"/>
    </clipPath>
  </defs>
  <g id="그룹_13" data-name="그룹 13" transform="translate(10.924 14.5) rotate(180)">
    <g id="그룹_12" data-name="그룹 12" transform="translate(0 0)" clip-path="url(#clip-path)">
      <path id="패스_13" data-name="패스 13" d="M.614,34.758h9.695a.628.628,0,0,1,.615.614v.285a.592.592,0,0,1-.615.571H.614A.592.592,0,0,1,0,35.657v-.285a.628.628,0,0,1,.614-.614" transform="translate(0 -21.728)" fill="#727270" fill-rule="evenodd"/>
      <path id="패스_14" data-name="패스 14" d="M5.988,11.143,11.1,6.054H8.358V.724A.731.731,0,0,0,7.634,0H4.364A.734.734,0,0,0,3.62.724v5.33H.877Z" transform="translate(-0.548 0)" fill="#67cdfd" fill-rule="evenodd"/>
    </g>
  </g>
</svg>
